<mxfile host="Electron" agent="Mozilla/5.0 (Windows NT 10.0; Win64; x64) AppleWebKit/537.36 (KHTML, like Gecko) draw.io/28.0.6 Chrome/138.0.7204.100 Electron/37.2.3 Safari/537.36" version="28.0.6">
  <diagram name="Page-1" id="MMndrkAHPcaMf4Lljt3P">
    <mxGraphModel dx="1516" dy="2472" grid="1" gridSize="10" guides="1" tooltips="1" connect="1" arrows="1" fold="1" page="1" pageScale="1" pageWidth="850" pageHeight="1100" math="0" shadow="0">
      <root>
        <mxCell id="0" />
        <mxCell id="1" parent="0" />
        <mxCell id="Ve8ZP7F-wuMUOCsn2rcc-1" value="&lt;font style=&quot;font-size: 23px;&quot;&gt;Integration Model&lt;/font&gt;" style="text;html=1;align=center;verticalAlign=middle;whiteSpace=wrap;rounded=0;" vertex="1" parent="1">
          <mxGeometry x="30" y="10" width="210" height="30" as="geometry" />
        </mxCell>
        <mxCell id="Ve8ZP7F-wuMUOCsn2rcc-2" value="crm_cust_info" style="swimlane;fontStyle=0;childLayout=stackLayout;horizontal=1;startSize=30;horizontalStack=0;resizeParent=1;resizeParentMax=0;resizeLast=0;collapsible=1;marginBottom=0;whiteSpace=wrap;html=1;rounded=1;fillColor=#1ba1e2;fontColor=#ffffff;strokeColor=#006EAF;fontSize=26;arcSize=32;" vertex="1" parent="1">
          <mxGeometry x="650" y="800" width="210" height="190" as="geometry" />
        </mxCell>
        <mxCell id="Ve8ZP7F-wuMUOCsn2rcc-3" value="cst_id" style="text;align=left;verticalAlign=middle;spacingLeft=4;spacingRight=4;overflow=hidden;points=[[0,0.5],[1,0.5]];portConstraint=eastwest;rotatable=0;whiteSpace=wrap;html=1;fontSize=26;" vertex="1" parent="Ve8ZP7F-wuMUOCsn2rcc-2">
          <mxGeometry y="30" width="210" height="80" as="geometry" />
        </mxCell>
        <mxCell id="Ve8ZP7F-wuMUOCsn2rcc-29" value="cst_key" style="text;align=left;verticalAlign=middle;spacingLeft=4;spacingRight=4;overflow=hidden;points=[[0,0.5],[1,0.5]];portConstraint=eastwest;rotatable=0;whiteSpace=wrap;html=1;fontSize=26;" vertex="1" parent="Ve8ZP7F-wuMUOCsn2rcc-2">
          <mxGeometry y="110" width="210" height="80" as="geometry" />
        </mxCell>
        <mxCell id="Ve8ZP7F-wuMUOCsn2rcc-8" value="&lt;font style=&quot;font-size: 20px;&quot;&gt;Customer Information&lt;/font&gt;" style="text;html=1;align=center;verticalAlign=middle;whiteSpace=wrap;rounded=0;" vertex="1" parent="1">
          <mxGeometry x="660" y="770" width="200" height="30" as="geometry" />
        </mxCell>
        <mxCell id="Ve8ZP7F-wuMUOCsn2rcc-9" value="crm_prd_info" style="swimlane;fontStyle=0;childLayout=stackLayout;horizontal=1;startSize=30;horizontalStack=0;resizeParent=1;resizeParentMax=0;resizeLast=0;collapsible=1;marginBottom=0;whiteSpace=wrap;html=1;rounded=1;fillColor=#1ba1e2;fontColor=#ffffff;strokeColor=#006EAF;fontSize=26;arcSize=32;" vertex="1" parent="1">
          <mxGeometry x="660" y="430" width="210" height="120" as="geometry" />
        </mxCell>
        <mxCell id="Ve8ZP7F-wuMUOCsn2rcc-10" value="prd_id" style="text;align=left;verticalAlign=middle;spacingLeft=4;spacingRight=4;overflow=hidden;points=[[0,0.5],[1,0.5]];portConstraint=eastwest;rotatable=0;whiteSpace=wrap;html=1;fontSize=26;" vertex="1" parent="Ve8ZP7F-wuMUOCsn2rcc-9">
          <mxGeometry y="30" width="210" height="90" as="geometry" />
        </mxCell>
        <mxCell id="Ve8ZP7F-wuMUOCsn2rcc-11" value="&lt;span style=&quot;font-size: 20px;&quot;&gt;Current and History Product Information&lt;/span&gt;" style="text;html=1;align=center;verticalAlign=middle;whiteSpace=wrap;rounded=0;" vertex="1" parent="1">
          <mxGeometry x="660" y="390" width="230" height="30" as="geometry" />
        </mxCell>
        <mxCell id="Ve8ZP7F-wuMUOCsn2rcc-12" value="crm_sales_details" style="swimlane;fontStyle=0;childLayout=stackLayout;horizontal=1;startSize=30;horizontalStack=0;resizeParent=1;resizeParentMax=0;resizeLast=0;collapsible=1;marginBottom=0;whiteSpace=wrap;html=1;rounded=1;fillColor=#1ba1e2;fontColor=#ffffff;strokeColor=#006EAF;fontSize=26;arcSize=32;" vertex="1" parent="1">
          <mxGeometry x="120" y="595" width="360" height="190" as="geometry" />
        </mxCell>
        <mxCell id="Ve8ZP7F-wuMUOCsn2rcc-13" value="prd_key" style="text;align=left;verticalAlign=middle;spacingLeft=4;spacingRight=4;overflow=hidden;points=[[0,0.5],[1,0.5]];portConstraint=eastwest;rotatable=0;whiteSpace=wrap;html=1;fontSize=26;" vertex="1" parent="Ve8ZP7F-wuMUOCsn2rcc-12">
          <mxGeometry y="30" width="360" height="80" as="geometry" />
        </mxCell>
        <mxCell id="Ve8ZP7F-wuMUOCsn2rcc-20" value="cst_id" style="text;align=left;verticalAlign=middle;spacingLeft=4;spacingRight=4;overflow=hidden;points=[[0,0.5],[1,0.5]];portConstraint=eastwest;rotatable=0;whiteSpace=wrap;html=1;fontSize=26;" vertex="1" parent="Ve8ZP7F-wuMUOCsn2rcc-12">
          <mxGeometry y="110" width="360" height="80" as="geometry" />
        </mxCell>
        <mxCell id="Ve8ZP7F-wuMUOCsn2rcc-14" value="&lt;span style=&quot;font-size: 20px;&quot;&gt;Transectional Records Aboredersout Sales &amp;amp; Orders&amp;nbsp;&lt;/span&gt;" style="text;html=1;align=center;verticalAlign=middle;whiteSpace=wrap;rounded=0;" vertex="1" parent="1">
          <mxGeometry x="110" y="535" width="370" height="60" as="geometry" />
        </mxCell>
        <mxCell id="Ve8ZP7F-wuMUOCsn2rcc-23" style="edgeStyle=orthogonalEdgeStyle;rounded=0;orthogonalLoop=1;jettySize=auto;html=1;entryX=0;entryY=0.5;entryDx=0;entryDy=0;" edge="1" parent="1" source="Ve8ZP7F-wuMUOCsn2rcc-13" target="Ve8ZP7F-wuMUOCsn2rcc-10">
          <mxGeometry relative="1" as="geometry" />
        </mxCell>
        <mxCell id="Ve8ZP7F-wuMUOCsn2rcc-24" style="edgeStyle=orthogonalEdgeStyle;rounded=0;orthogonalLoop=1;jettySize=auto;html=1;entryX=0;entryY=0.5;entryDx=0;entryDy=0;" edge="1" parent="1" source="Ve8ZP7F-wuMUOCsn2rcc-20" target="Ve8ZP7F-wuMUOCsn2rcc-3">
          <mxGeometry relative="1" as="geometry" />
        </mxCell>
        <mxCell id="Ve8ZP7F-wuMUOCsn2rcc-25" style="edgeStyle=orthogonalEdgeStyle;rounded=0;orthogonalLoop=1;jettySize=auto;html=1;exitX=1;exitY=0.25;exitDx=0;exitDy=0;entryX=1;entryY=0.5;entryDx=0;entryDy=0;" edge="1" parent="1" source="Ve8ZP7F-wuMUOCsn2rcc-1" target="Ve8ZP7F-wuMUOCsn2rcc-1">
          <mxGeometry relative="1" as="geometry" />
        </mxCell>
        <mxCell id="Ve8ZP7F-wuMUOCsn2rcc-26" value="erp_cust_az12" style="swimlane;fontStyle=0;childLayout=stackLayout;horizontal=1;startSize=30;horizontalStack=0;resizeParent=1;resizeParentMax=0;resizeLast=0;collapsible=1;marginBottom=0;whiteSpace=wrap;html=1;rounded=1;fillColor=#f0a30a;fontColor=#000000;strokeColor=#BD7000;fontSize=26;arcSize=32;" vertex="1" parent="1">
          <mxGeometry x="1410" y="730" width="210" height="120" as="geometry" />
        </mxCell>
        <mxCell id="Ve8ZP7F-wuMUOCsn2rcc-27" value="cid" style="text;align=left;verticalAlign=middle;spacingLeft=4;spacingRight=4;overflow=hidden;points=[[0,0.5],[1,0.5]];portConstraint=eastwest;rotatable=0;whiteSpace=wrap;html=1;fontSize=26;" vertex="1" parent="Ve8ZP7F-wuMUOCsn2rcc-26">
          <mxGeometry y="30" width="210" height="90" as="geometry" />
        </mxCell>
        <mxCell id="Ve8ZP7F-wuMUOCsn2rcc-28" value="&lt;span style=&quot;font-size: 20px;&quot;&gt;Extra Customer Information (Birthdates)&lt;/span&gt;" style="text;html=1;align=center;verticalAlign=middle;whiteSpace=wrap;rounded=0;" vertex="1" parent="1">
          <mxGeometry x="1410" y="690" width="230" height="30" as="geometry" />
        </mxCell>
        <mxCell id="Ve8ZP7F-wuMUOCsn2rcc-31" style="edgeStyle=orthogonalEdgeStyle;rounded=0;orthogonalLoop=1;jettySize=auto;html=1;entryX=1;entryY=0.5;entryDx=0;entryDy=0;" edge="1" parent="1" source="Ve8ZP7F-wuMUOCsn2rcc-27" target="Ve8ZP7F-wuMUOCsn2rcc-29">
          <mxGeometry relative="1" as="geometry" />
        </mxCell>
        <mxCell id="Ve8ZP7F-wuMUOCsn2rcc-32" value="erp_loc_a101" style="swimlane;fontStyle=0;childLayout=stackLayout;horizontal=1;startSize=30;horizontalStack=0;resizeParent=1;resizeParentMax=0;resizeLast=0;collapsible=1;marginBottom=0;whiteSpace=wrap;html=1;rounded=1;fillColor=#f0a30a;fontColor=#000000;strokeColor=#BD7000;fontSize=26;arcSize=32;" vertex="1" parent="1">
          <mxGeometry x="1390" y="1000" width="230" height="120" as="geometry" />
        </mxCell>
        <mxCell id="Ve8ZP7F-wuMUOCsn2rcc-33" value="cid" style="text;align=left;verticalAlign=middle;spacingLeft=4;spacingRight=4;overflow=hidden;points=[[0,0.5],[1,0.5]];portConstraint=eastwest;rotatable=0;whiteSpace=wrap;html=1;fontSize=26;" vertex="1" parent="Ve8ZP7F-wuMUOCsn2rcc-32">
          <mxGeometry y="30" width="230" height="90" as="geometry" />
        </mxCell>
        <mxCell id="Ve8ZP7F-wuMUOCsn2rcc-35" style="edgeStyle=orthogonalEdgeStyle;rounded=0;orthogonalLoop=1;jettySize=auto;html=1;entryX=1;entryY=0.5;entryDx=0;entryDy=0;" edge="1" parent="1" source="Ve8ZP7F-wuMUOCsn2rcc-33" target="Ve8ZP7F-wuMUOCsn2rcc-29">
          <mxGeometry relative="1" as="geometry">
            <mxPoint x="1080" y="840" as="targetPoint" />
          </mxGeometry>
        </mxCell>
        <mxCell id="Ve8ZP7F-wuMUOCsn2rcc-37" value="&lt;span style=&quot;font-size: 20px;&quot;&gt;Location Of Customer(country)&lt;/span&gt;" style="text;html=1;align=center;verticalAlign=middle;whiteSpace=wrap;rounded=0;" vertex="1" parent="1">
          <mxGeometry x="1400" y="960" width="230" height="30" as="geometry" />
        </mxCell>
        <mxCell id="Ve8ZP7F-wuMUOCsn2rcc-41" style="edgeStyle=orthogonalEdgeStyle;rounded=0;orthogonalLoop=1;jettySize=auto;html=1;" edge="1" parent="1" source="Ve8ZP7F-wuMUOCsn2rcc-38" target="Ve8ZP7F-wuMUOCsn2rcc-10">
          <mxGeometry relative="1" as="geometry" />
        </mxCell>
        <mxCell id="Ve8ZP7F-wuMUOCsn2rcc-38" value="erp_px_cat_g1v2" style="swimlane;fontStyle=0;childLayout=stackLayout;horizontal=1;startSize=30;horizontalStack=0;resizeParent=1;resizeParentMax=0;resizeLast=0;collapsible=1;marginBottom=0;whiteSpace=wrap;html=1;rounded=1;fillColor=#f0a30a;fontColor=#000000;strokeColor=#BD7000;fontSize=26;arcSize=32;" vertex="1" parent="1">
          <mxGeometry x="1420" y="350" width="230" height="120" as="geometry" />
        </mxCell>
        <mxCell id="Ve8ZP7F-wuMUOCsn2rcc-39" value="id" style="text;align=left;verticalAlign=middle;spacingLeft=4;spacingRight=4;overflow=hidden;points=[[0,0.5],[1,0.5]];portConstraint=eastwest;rotatable=0;whiteSpace=wrap;html=1;fontSize=26;" vertex="1" parent="Ve8ZP7F-wuMUOCsn2rcc-38">
          <mxGeometry y="30" width="230" height="90" as="geometry" />
        </mxCell>
        <mxCell id="Ve8ZP7F-wuMUOCsn2rcc-40" value="&lt;span style=&quot;font-size: 20px;&quot;&gt;Product Categories&lt;/span&gt;" style="text;html=1;align=center;verticalAlign=middle;whiteSpace=wrap;rounded=0;" vertex="1" parent="1">
          <mxGeometry x="1430" y="310" width="230" height="30" as="geometry" />
        </mxCell>
        <mxCell id="Ve8ZP7F-wuMUOCsn2rcc-42" value="" style="rounded=1;whiteSpace=wrap;html=1;strokeColor=default;fillColor=none;" vertex="1" parent="1">
          <mxGeometry x="80" y="260" width="920" height="890" as="geometry" />
        </mxCell>
        <mxCell id="Ve8ZP7F-wuMUOCsn2rcc-43" value="&lt;font style=&quot;font-size: 59px;&quot;&gt;CRM&lt;/font&gt;" style="text;html=1;align=center;verticalAlign=middle;whiteSpace=wrap;rounded=1;fillColor=#1ba1e2;fontColor=#ffffff;strokeColor=#006EAF;gradientColor=none;" vertex="1" parent="1">
          <mxGeometry x="380" y="190" width="340" height="120" as="geometry" />
        </mxCell>
        <mxCell id="Ve8ZP7F-wuMUOCsn2rcc-46" value="" style="rounded=1;whiteSpace=wrap;html=1;fillColor=none;" vertex="1" parent="1">
          <mxGeometry x="1090" y="260" width="760" height="930" as="geometry" />
        </mxCell>
        <mxCell id="Ve8ZP7F-wuMUOCsn2rcc-47" value="&lt;span style=&quot;font-size: 59px;&quot;&gt;ERP&lt;/span&gt;" style="text;html=1;align=center;verticalAlign=middle;whiteSpace=wrap;rounded=1;fillColor=#f0a30a;fontColor=#000000;strokeColor=#BD7000;" vertex="1" parent="1">
          <mxGeometry x="1390" y="200" width="180" height="70" as="geometry" />
        </mxCell>
        <mxCell id="Ve8ZP7F-wuMUOCsn2rcc-48" value="" style="rounded=0;whiteSpace=wrap;html=1;fillColor=#e3c800;fontColor=#000000;strokeColor=#B09500;" vertex="1" parent="1">
          <mxGeometry x="660" y="530" width="210" height="40" as="geometry" />
        </mxCell>
        <mxCell id="Ve8ZP7F-wuMUOCsn2rcc-49" value="&lt;span style=&quot;font-size: 40px;&quot;&gt;Product&lt;/span&gt;" style="text;html=1;align=center;verticalAlign=middle;whiteSpace=wrap;rounded=0;" vertex="1" parent="1">
          <mxGeometry x="730" y="545" width="60" height="10" as="geometry" />
        </mxCell>
        <mxCell id="Ve8ZP7F-wuMUOCsn2rcc-50" value="" style="rounded=0;whiteSpace=wrap;html=1;fillColor=#e3c800;fontColor=#000000;strokeColor=#B09500;" vertex="1" parent="1">
          <mxGeometry x="1420" y="450" width="230" height="40" as="geometry" />
        </mxCell>
        <mxCell id="Ve8ZP7F-wuMUOCsn2rcc-54" style="edgeStyle=orthogonalEdgeStyle;rounded=0;orthogonalLoop=1;jettySize=auto;html=1;" edge="1" parent="1" source="Ve8ZP7F-wuMUOCsn2rcc-51" target="Ve8ZP7F-wuMUOCsn2rcc-50">
          <mxGeometry relative="1" as="geometry" />
        </mxCell>
        <mxCell id="Ve8ZP7F-wuMUOCsn2rcc-51" value="&lt;span style=&quot;font-size: 40px;&quot;&gt;Product&lt;/span&gt;" style="text;html=1;align=center;verticalAlign=middle;whiteSpace=wrap;rounded=0;" vertex="1" parent="1">
          <mxGeometry x="1490" y="465" width="60" height="10" as="geometry" />
        </mxCell>
        <mxCell id="Ve8ZP7F-wuMUOCsn2rcc-55" value="" style="rounded=0;whiteSpace=wrap;html=1;fillColor=#d5e8d4;strokeColor=#82b366;gradientColor=#97d077;" vertex="1" parent="1">
          <mxGeometry x="650" y="970" width="210" height="40" as="geometry" />
        </mxCell>
        <mxCell id="Ve8ZP7F-wuMUOCsn2rcc-56" value="&lt;span style=&quot;font-size: 40px;&quot;&gt;customer&lt;/span&gt;" style="text;html=1;align=center;verticalAlign=middle;whiteSpace=wrap;rounded=0;" vertex="1" parent="1">
          <mxGeometry x="660" y="975" width="185" height="30" as="geometry" />
        </mxCell>
        <mxCell id="Ve8ZP7F-wuMUOCsn2rcc-62" value="" style="rounded=0;whiteSpace=wrap;html=1;fillColor=#d5e8d4;strokeColor=#82b366;gradientColor=#97d077;" vertex="1" parent="1">
          <mxGeometry x="1410" y="830" width="210" height="40" as="geometry" />
        </mxCell>
        <mxCell id="Ve8ZP7F-wuMUOCsn2rcc-63" value="&lt;span style=&quot;font-size: 40px;&quot;&gt;customer&lt;/span&gt;" style="text;html=1;align=center;verticalAlign=middle;whiteSpace=wrap;rounded=0;" vertex="1" parent="1">
          <mxGeometry x="1420" y="835" width="185" height="30" as="geometry" />
        </mxCell>
        <mxCell id="Ve8ZP7F-wuMUOCsn2rcc-64" value="" style="rounded=0;whiteSpace=wrap;html=1;fillColor=#d5e8d4;strokeColor=#82b366;gradientColor=#97d077;" vertex="1" parent="1">
          <mxGeometry x="1390" y="1100" width="230" height="40" as="geometry" />
        </mxCell>
        <mxCell id="Ve8ZP7F-wuMUOCsn2rcc-65" value="&lt;span style=&quot;font-size: 40px;&quot;&gt;customer&lt;/span&gt;" style="text;html=1;align=center;verticalAlign=middle;whiteSpace=wrap;rounded=0;" vertex="1" parent="1">
          <mxGeometry x="1420" y="1105" width="175" height="30" as="geometry" />
        </mxCell>
        <mxCell id="Ve8ZP7F-wuMUOCsn2rcc-66" value="" style="rounded=0;whiteSpace=wrap;html=1;fillColor=#f8cecc;strokeColor=#b85450;gradientColor=#ea6b66;" vertex="1" parent="1">
          <mxGeometry x="120" y="770" width="360" height="40" as="geometry" />
        </mxCell>
        <mxCell id="Ve8ZP7F-wuMUOCsn2rcc-67" value="&lt;span style=&quot;font-size: 40px;&quot;&gt;Sales&lt;/span&gt;" style="text;html=1;align=center;verticalAlign=middle;whiteSpace=wrap;rounded=0;" vertex="1" parent="1">
          <mxGeometry x="195" y="775" width="185" height="30" as="geometry" />
        </mxCell>
      </root>
    </mxGraphModel>
  </diagram>
</mxfile>
